<?xml version="1.0" encoding="utf-8"?>
<!-- Generator: Adobe Illustrator 19.0.0, SVG Export Plug-In . SVG Version: 6.00 Build 0)  -->
<svg version="1.1" id="Layer_1" xmlns="http://www.w3.org/2000/svg" xmlns:xlink="http://www.w3.org/1999/xlink" x="0px" y="0px"
	 viewBox="0 0 500 500" style="enable-background:new 0 0 500 500;" xml:space="preserve">
<style type="text/css">
	.st0{fill:#3B5998;}
	.st1{fill:#FFFFFF;}
</style>
<g id="XMLID_1_">
	<rect id="XMLID_3_" x="67.5" y="181.4" class="st0" width="365" height="137.2"/>
	<path id="XMLID_6_" class="st1" d="M264.9,240.2c-4.5-0.5-8.4,0.9-11.7,4.9v-1.2v-21.4v-0.2v-1.4l-11.9,1.4v56.3h11.9v-3.3
		c1.6,1.1,3.2,2.5,5,3.2c7,2.5,16.1,0.5,19.3-8.8c2.1-6,2-12.1,0.5-18.1C276.3,244.6,271.8,240.9,264.9,240.2z M266.7,264.6
		c-0.5,3.7-3.5,5.7-7,5.4c-0.9-0.1-1.7-0.2-2.4-0.5c-2.8-1.6-3.7-4.3-3.9-6l0,0c-0.2-2.6-0.4-8.2,0.9-10.8c1.1-2,3-3.1,5.5-3.2
		c3.6-0.1,6.3,1.7,6.9,5.3C267.2,258,267.2,261.3,266.7,264.6z"/>
	<path id="XMLID_9_" class="st1" d="M307.3,240.9c-4.2-1.1-8.3-1.1-12.5,0c-6.2,1.7-10.4,5.6-11.7,11.8c-0.7,3.4-0.9,7-0.7,10.5
		c0.4,8,5.4,13.7,13,15.4l0.3,0.1h0l0.1,0c0.3,0.1,0.6,0.1,0.9,0.2l0.3,0h0c0.4,0.1,0.8,0.1,1.3,0.2c1.5,0.2,3.4,0.3,5,0.1l0,0
		l0.2,0c7.9-0.4,13.9-5.4,15.7-13.1c1-4.2,1-8.4,0-12.6C317.8,246.9,313.8,242.6,307.3,240.9z M307.8,264c0,0.2-0.1,0.5-0.1,0.7
		c-0.8,3.5-3.4,5.4-6.8,5.3c-3.7-0.2-6.2-2.3-6.5-6c-0.3-2.7-0.3-5.4-0.1-8.1c0.3-4.2,3-6.5,7-6.5c3.3,0.1,5.6,1.9,6.4,5
		C308.4,257.6,307.8,263.2,307.8,264z"/>
	<path id="XMLID_10_" class="st1" d="M128,240.7h-8.5V235c0.6-5.4,9.5-4.3,9.5-4.3l0-0.4l0,0v-8.8h0v0h0c-0.3-0.1-17.6-4.2-21,9l0,0
		l0,0.1c-0.5,1.6-0.5,9.2-0.5,10.1h-7.4v10.1h7.8v27.4h11.4v-27.4h8.7l1-10.1H128z"/>
	<path id="XMLID_13_" class="st1" d="M155.2,245.5c-0.1-0.2-0.3-0.3-0.4-0.4v0l-0.1-0.1c-0.2-0.2-0.3-0.3-0.3-0.3
		c-2.7-2.7-3.7-3.4-5.8-4c-8.1-2.4-16,1.9-18.5,10c-1.5,5-1.6,10.2-0.7,15.2c1.9,11,10.1,14.7,18.8,12.9c2.7-0.6,4.7-2.2,6.5-4.5
		c0,0,0.2-0.2,0.4-0.6v4.8h11.1v-37.8h-11.1L155.2,245.5L155.2,245.5z M154.2,264.5c-0.4,3.5-3.2,5.6-6.5,5.5
		c-3.4-0.1-5.7-2-6.4-5.3c-0.9-4.7,0.2-10.2,0.2-10.7c0.9-3.1,3.2-4.7,6.5-4.6c3.3,0.1,5.8,2,6.2,5.4
		C154.6,258,154.6,261.3,154.2,264.5z"/>
	<path id="XMLID_14_" class="st1" d="M200.4,275.8c-0.5-1.9-1.1-3.8-1.7-5.6l-0.5-2c0,0-14,6.7-16.2-6c-0.2-2.1-0.1-4.3,0.1-6.4
		c0.5-3.9,2.9-6,6.7-6.4c1.3-0.1,2.6-0.1,3.9,0.2c1.7,0.3,3.4,0.8,5.3,1.3c0.7-2,1.3-4,2-6c0.1-0.3,0.2-0.6,0.2-0.8h0l0.3-1.2
		c-0.1-0.2-0.3-0.3-0.5-0.5v0c-0.3-0.3-0.9-0.5-1.7-0.8c-0.3-0.1-0.7-0.2-1-0.3c-0.3-0.1-0.5-0.2-0.5-0.2h0c-3.7-1-7.4-1.1-11.3-0.7
		c-8.1,0.9-13.5,5.6-15.1,13.5c-0.8,4.1-0.8,8.3,0.2,12.5c1.4,6.2,5.1,10.2,11.3,12c4,1.2,8.1,1.2,12.2,0.6c1.7-0.3,4.2-1.2,5.9-1.8
		l0.7-0.2L200.4,275.8L200.4,275.8z"/>
	<path id="XMLID_17_" class="st1" d="M237.2,261c-0.1-2.6,0-5.2-0.4-7.8c-1-7-5.3-11.5-12.2-12.7c-2.6-0.4-5.4-0.4-8.1-0.1
		c-7.4,0.7-13,5.3-14.1,12.2c-0.7,4.2-0.8,8.6-0.2,12.8c0.8,6.3,3.9,10.4,9.3,12.3h0l0.1,0l0,0c2.4,0.7,14.3,3.8,24.8-1.4l-0.4-1.5
		l0,0c-0.5-2.1-1.1-4.1-1.6-6.1l-0.1-0.2c0,0-0.2,0.1-0.6,0.2l0,0c-0.5,0.1-0.9,0.3-1.4,0.4l-0.2,0.1c-1.6,0.4-3.9,1-6.3,1.3
		c-2,0.2-4,0.2-6.1,0c-3.3-0.6-5.9-2.3-5.8-6.6h1.9c6.5,0,13.1,0,19.6,0c0.2,0,0.3,0,0.5,0l0,0l1.5,0v-0.4L237.2,261z M226.4,255.9
		h-12.9c0.1-2.6,0.4-5,2.7-6.4c2.4-1.5,5.1-1.6,7.6-0.2C226.3,250.6,226.5,253.1,226.4,255.9z"/>
	<polygon id="XMLID_18_" class="st1" points="400.1,241.1 387.4,241.1 376.4,258.3 376.4,222.4 376.4,222.2 376.4,220.7 
		364.4,222.2 364.4,278.5 376.4,278.5 376.4,261.3 387.4,278.5 400.1,278.5 388.1,259.8 	"/>
	<path id="XMLID_21_" class="st1" d="M348,240.9c-4.2-1.1-8.3-1.1-12.5,0c-6.2,1.7-10.4,5.6-11.7,11.8c-0.7,3.4-0.9,7-0.7,10.5
		c0.4,8,5.4,13.7,13,15.4l0.3,0.1h0l0.1,0c0.3,0.1,0.6,0.1,0.9,0.2l0.3,0l0,0c0.4,0.1,0.8,0.1,1.3,0.2c1.5,0.2,3.4,0.3,5,0.1l0,0
		l0.2,0c7.9-0.4,13.9-5.4,15.7-13.1c1-4.2,1-8.4,0-12.6C358.6,246.9,354.6,242.6,348,240.9z M348.5,264c0,0.2-0.1,0.5-0.1,0.7
		c-0.8,3.5-3.4,5.4-6.8,5.3c-3.7-0.2-6.2-2.3-6.5-6c-0.3-2.7-0.3-5.4-0.1-8.1c0.4-4.2,3-6.5,7-6.5c3.3,0.1,5.6,1.9,6.4,5
		C349.1,257.6,348.6,263.2,348.5,264z"/>
</g>
</svg>
